# xmcd
#
# Track frame offsets:
# 150
# 16653
# 29627
# 44286
# 55710
# 69458
# 81614
# 93484
# 106233
# 120894
# 134754
# 146932
# 157620
# 169199
# 184521
#
# Disc length: 2708 seconds
#
#
# Revision: 0
# Processed by: cddbd v1.5.2PL0 Copyright (c) Steve Scherf et al.
# Submitted via: Nero 7, 8, 5, 0 
#
DISCID=c50a920f
DTITLE=Ronny - Seine größten Erfolge
DYEAR=1997
DGENRE=Country
TTITLE0=Sierra Madre del Sur
TTITLE1=Kleine Annabell
TTITLE2=Er war nur ein armer Zigeuner
TTITLE3=Dunja, Du
TTITLE4=Darling, Good Night
TTITLE5=Lass die Sonne wieder scheinen
TTITLE6=Anja, Anja
TTITLE7=Oh, Shenandoah
TTITLE8=Doch dann kamst Du
TTITLE9=Wenn Du einsam bist
TTITLE10=Glory, Glory Hallelujah
TTITLE11=Michael, bring Dein Boot an Land
TTITLE12=Ein Stern geht auf
TTITLE13=Good Night, Ladies
TTITLE14=Einmal vergeht der schönste Sommer
EXTD=
EXTT0=Sierra Madre del Sur
EXTT1=Kleine Annabell
EXTT2=Er war nur ein armer Zigeuner
EXTT3=Dunja, Du
EXTT4=Darling, Good Night
EXTT5=Lass die Sonne wieder scheinen
EXTT6=Anja, Anja
EXTT7=Oh, Shenandoah
EXTT8=Doch dann kamst Du
EXTT9=Wenn Du einsam bist
EXTT10=Glory, Glory Hallelujah
EXTT11=Michael, bring Dein Boot an Land
EXTT12=Ein Stern geht auf
EXTT13=Good Night, Ladies
EXTT14=Einmal vergeht der schönste Sommer
PLAYORDER=
